<svg xmlns="http://www.w3.org/2000/svg" viewBox="0 0 96 96" role="img" aria-labelledby="title desc">
  <title id="title">BrasaConnect</title>
  <desc id="desc">Logo de BrasaConnect con dos nodos conectados y un flujo central.</desc>
  <defs>
    <linearGradient id="bg" x1="14" y1="10" x2="84" y2="88" gradientUnits="userSpaceOnUse">
      <stop offset="0" stop-color="#63b38f"/>
      <stop offset="0.52" stop-color="#2b7f63"/>
      <stop offset="1" stop-color="#c86f31"/>
    </linearGradient>
    <linearGradient id="line" x1="24" y1="30" x2="74" y2="66" gradientUnits="userSpaceOnUse">
      <stop offset="0" stop-color="#fffaf2"/>
      <stop offset="1" stop-color="#f8dfc7"/>
    </linearGradient>
    <filter id="shadow" x="-20%" y="-20%" width="140%" height="145%">
      <feDropShadow dx="0" dy="8" stdDeviation="8" flood-color="#1f5f4a" flood-opacity="0.25"/>
    </filter>
  </defs>
  <rect width="96" height="96" rx="26" fill="#fffaf2"/>
  <path filter="url(#shadow)" fill="url(#bg)" d="M27 23h42c7.7 0 14 6.3 14 14v22c0 7.7-6.3 14-14 14H27c-7.7 0-14-6.3-14-14V37c0-7.7 6.3-14 14-14z"/>
  <path fill="none" stroke="url(#line)" stroke-width="7" stroke-linecap="round" d="M31 50c10-16 24 16 34 0"/>
  <circle cx="28" cy="50" r="12" fill="#fffaf2"/>
  <circle cx="68" cy="50" r="12" fill="#fffaf2"/>
  <circle cx="28" cy="50" r="5" fill="#2b7f63"/>
  <circle cx="68" cy="50" r="5" fill="#c86f31"/>
  <path fill="#fffaf2" d="M45 32h6v31h-6z" opacity=".9"/>
  <path fill="#fffaf2" d="M36 41h24v6H36z" opacity=".9"/>
</svg>
